<svg version="1.1" viewBox="0.0 0.0 500.0 500.0" fill="none" stroke="none" stroke-linecap="square" stroke-miterlimit="10" xmlns:xlink="http://www.w3.org/1999/xlink" xmlns="http://www.w3.org/2000/svg"><clipPath id="p.0"><path d="m0 0l500.0 0l0 500.0l-500.0 0l0 -500.0z" clip-rule="nonzero"/></clipPath><g clip-path="url(#p.0)"><path fill="#000000" fill-opacity="0.0" d="m0 0l500.0 0l0 500.0l-500.0 0z" fill-rule="evenodd"/><path fill="#000000" d="m250.0 10.960629l213.5747 106.7874l0 264.50397l-213.5747 106.787384l-213.5747 -106.787384l0 -264.50397z" fill-rule="evenodd"/><path stroke="#000000" stroke-width="1.0" stroke-linejoin="round" stroke-linecap="butt" d="m250.0 10.960629l213.5747 106.7874l0 264.50397l-213.5747 106.787384l-213.5747 -106.787384l0 -264.50397z" fill-rule="evenodd"/><path fill="#000000" d="m143.92258 337.2452l0 0c0 -21.308624 17.274048 -38.582672 38.582672 -38.582672l0 0c10.232758 0 20.046417 4.0649414 27.282074 11.300598c7.2356567 7.2356567 11.300598 17.049316 11.300598 27.282074l0 0c0 21.308624 -17.274048 38.582672 -38.582672 38.582672l0 0c-21.308624 0 -38.582672 -17.274048 -38.582672 -38.582672z" fill-rule="evenodd"/><path stroke="#2493ff" stroke-width="12.0" stroke-linejoin="round" stroke-linecap="butt" d="m143.92258 337.2452l0 0c0 -21.308624 17.274048 -38.582672 38.582672 -38.582672l0 0c10.232758 0 20.046417 4.0649414 27.282074 11.300598c7.2356567 7.2356567 11.300598 17.049316 11.300598 27.282074l0 0c0 21.308624 -17.274048 38.582672 -38.582672 38.582672l0 0c-21.308624 0 -38.582672 -17.274048 -38.582672 -38.582672z" fill-rule="evenodd"/><path fill="#000000" d="m220.64561 191.82414l0 0c0 -37.364014 30.317734 -67.65354 67.71654 -67.65354l0 0c17.959534 0 35.183502 7.1277695 47.882812 19.81527c12.699341 12.6875 19.83374 29.895447 19.83374 47.838272l0 0c0 37.36403 -30.317749 67.65355 -67.71655 67.65355l0 0c-37.398804 0 -67.71654 -30.28952 -67.71654 -67.65355z" fill-rule="evenodd"/><path stroke="#2493ff" stroke-width="12.0" stroke-linejoin="round" stroke-linecap="butt" d="m220.64561 191.82414l0 0c0 -37.364014 30.317734 -67.65354 67.71654 -67.65354l0 0c17.959534 0 35.183502 7.1277695 47.882812 19.81527c12.699341 12.6875 19.83374 29.895447 19.83374 47.838272l0 0c0 37.36403 -30.317749 67.65355 -67.71655 67.65355l0 0c-37.398804 0 -67.71654 -30.28952 -67.71654 -67.65355z" fill-rule="evenodd"/><path fill="#000000" d="m186.39476 281.41446l0 0c0 -27.318542 22.16719 -49.464584 49.51181 -49.464584l0 0c13.131348 0 25.724869 5.211441 35.010147 14.487839c9.285248 9.276413 14.501648 21.85791 14.501648 34.976746l0 0c0 27.318512 -22.167175 49.46457 -49.511795 49.46457l0 0c-27.34462 0 -49.51181 -22.146057 -49.51181 -49.46457z" fill-rule="evenodd"/><path stroke="#2493ff" stroke-width="12.0" stroke-linejoin="round" stroke-linecap="butt" d="m186.39476 281.41446l0 0c0 -27.318542 22.16719 -49.464584 49.51181 -49.464584l0 0c13.131348 0 25.724869 5.211441 35.010147 14.487839c9.285248 9.276413 14.501648 21.85791 14.501648 34.976746l0 0c0 27.318512 -22.167175 49.46457 -49.511795 49.46457l0 0c-27.34462 0 -49.51181 -22.146057 -49.51181 -49.46457z" fill-rule="evenodd"/></g></svg>